<svg width="54" height="63" viewBox="0 0 54 63" fill="none" xmlns="http://www.w3.org/2000/svg">
<path d="M6 26C6 20.4772 10.4772 16 16 16H44C49.5228 16 54 20.4772 54 26V45C54 50.5228 49.5228 55 44 55H16C10.4772 55 6 50.5228 6 45V26Z" fill="#E8DFDF"/>
<g filter="url(#filter0_d_1_37)">
<mask id="path-2-outside-1_1_37" maskUnits="userSpaceOnUse" x="22" y="23" width="13" height="27" fill="black">
<rect fill="white" x="22" y="23" width="13" height="27"/>
<path d="M27.0015 45.9524H30.0491V49H27.0015V45.9524ZM27.0015 42.9048H30.0491V45.9524H27.0015V42.9048ZM27.0015 39.8571H30.0491V42.9048H27.0015V39.8571ZM27.0015 36.8095H30.0491V39.8571H27.0015V36.8095ZM27.0015 33.7619H30.0491V36.8095H27.0015V33.7619ZM27.0015 30.7143H30.0491V33.7619H27.0015V30.7143ZM27.0015 27.6667H30.0491V30.7143H27.0015V27.6667ZM27.0015 24.619H30.0491V27.6667H27.0015V24.619ZM30.0491 24.619H33.0967V27.6667H30.0491V24.619ZM30.0491 27.6667H33.0967V30.7143H30.0491V27.6667ZM30.0491 30.7143H33.0967V33.7619H30.0491V30.7143ZM30.0491 33.7619H33.0967V36.8095H30.0491V33.7619ZM30.0491 36.8095H33.0967V39.8571H30.0491V36.8095ZM30.0491 39.8571H33.0967V42.9048H30.0491V39.8571ZM30.0491 42.9048H33.0967V45.9524H30.0491V42.9048ZM23.9539 27.6667H27.0015V30.7143H23.9539V27.6667Z"/>
</mask>
<path d="M27.0015 45.9524H30.0491V49H27.0015V45.9524ZM27.0015 42.9048H30.0491V45.9524H27.0015V42.9048ZM27.0015 39.8571H30.0491V42.9048H27.0015V39.8571ZM27.0015 36.8095H30.0491V39.8571H27.0015V36.8095ZM27.0015 33.7619H30.0491V36.8095H27.0015V33.7619ZM27.0015 30.7143H30.0491V33.7619H27.0015V30.7143ZM27.0015 27.6667H30.0491V30.7143H27.0015V27.6667ZM27.0015 24.619H30.0491V27.6667H27.0015V24.619ZM30.0491 24.619H33.0967V27.6667H30.0491V24.619ZM30.0491 27.6667H33.0967V30.7143H30.0491V27.6667ZM30.0491 30.7143H33.0967V33.7619H30.0491V30.7143ZM30.0491 33.7619H33.0967V36.8095H30.0491V33.7619ZM30.0491 36.8095H33.0967V39.8571H30.0491V36.8095ZM30.0491 39.8571H33.0967V42.9048H30.0491V39.8571ZM30.0491 42.9048H33.0967V45.9524H30.0491V42.9048ZM23.9539 27.6667H27.0015V30.7143H23.9539V27.6667Z" fill="black"/>
<path d="M27.0015 45.9524V44.9524H26.0015V45.9524H27.0015ZM30.0491 45.9524H31.0491V44.9524H30.0491V45.9524ZM30.0491 49V50H31.0491V49H30.0491ZM27.0015 49H26.0015V50H27.0015V49ZM27.0015 42.9048V41.9048H26.0015V42.9048H27.0015ZM30.0491 42.9048H31.0491V41.9048H30.0491V42.9048ZM30.0491 45.9524V46.9524H31.0491V45.9524H30.0491ZM27.0015 45.9524H26.0015V46.9524H27.0015V45.9524ZM27.0015 39.8571V38.8571H26.0015V39.8571H27.0015ZM30.0491 39.8571H31.0491V38.8571H30.0491V39.8571ZM30.0491 42.9048V43.9048H31.0491V42.9048H30.0491ZM27.0015 42.9048H26.0015V43.9048H27.0015V42.9048ZM27.0015 36.8095V35.8095H26.0015V36.8095H27.0015ZM30.0491 36.8095H31.0491V35.8095H30.0491V36.8095ZM30.0491 39.8571V40.8571H31.0491V39.8571H30.0491ZM27.0015 39.8571H26.0015V40.8571H27.0015V39.8571ZM27.0015 33.7619V32.7619H26.0015V33.7619H27.0015ZM30.0491 33.7619H31.0491V32.7619H30.0491V33.7619ZM30.0491 36.8095V37.8095H31.0491V36.8095H30.0491ZM27.0015 36.8095H26.0015V37.8095H27.0015V36.8095ZM27.0015 30.7143V29.7143H26.0015V30.7143H27.0015ZM30.0491 30.7143H31.0491V29.7143H30.0491V30.7143ZM30.0491 33.7619V34.7619H31.0491V33.7619H30.0491ZM27.0015 33.7619H26.0015V34.7619H27.0015V33.7619ZM27.0015 27.6667V26.6667H26.0015V27.6667H27.0015ZM30.0491 27.6667H31.0491V26.6667H30.0491V27.6667ZM30.0491 30.7143V31.7143H31.0491V30.7143H30.0491ZM27.0015 30.7143H26.0015V31.7143H27.0015V30.7143ZM27.0015 24.619V23.619H26.0015V24.619H27.0015ZM30.0491 24.619H31.0491V23.619H30.0491V24.619ZM30.0491 27.6667V28.6667H31.0491V27.6667H30.0491ZM27.0015 27.6667H26.0015V28.6667H27.0015V27.6667ZM30.0491 24.619V23.619H29.0491V24.619H30.0491ZM33.0967 24.619H34.0967V23.619H33.0967V24.619ZM33.0967 27.6667V28.6667H34.0967V27.6667H33.0967ZM30.0491 27.6667H29.0491V28.6667H30.0491V27.6667ZM30.0491 27.6667V26.6667H29.0491V27.6667H30.0491ZM33.0967 27.6667H34.0967V26.6667H33.0967V27.6667ZM33.0967 30.7143V31.7143H34.0967V30.7143H33.0967ZM30.0491 30.7143H29.0491V31.7143H30.0491V30.7143ZM30.0491 30.7143V29.7143H29.0491V30.7143H30.0491ZM33.0967 30.7143H34.0967V29.7143H33.0967V30.7143ZM33.0967 33.7619V34.7619H34.0967V33.7619H33.0967ZM30.0491 33.7619H29.0491V34.7619H30.0491V33.7619ZM30.0491 33.7619V32.7619H29.0491V33.7619H30.0491ZM33.0967 33.7619H34.0967V32.7619H33.0967V33.7619ZM33.0967 36.8095V37.8095H34.0967V36.8095H33.0967ZM30.0491 36.8095H29.0491V37.8095H30.0491V36.8095ZM30.0491 36.8095V35.8095H29.0491V36.8095H30.0491ZM33.0967 36.8095H34.0967V35.8095H33.0967V36.8095ZM33.0967 39.8571V40.8571H34.0967V39.8571H33.0967ZM30.0491 39.8571H29.0491V40.8571H30.0491V39.8571ZM30.0491 39.8571V38.8571H29.0491V39.8571H30.0491ZM33.0967 39.8571H34.0967V38.8571H33.0967V39.8571ZM33.0967 42.9048V43.9048H34.0967V42.9048H33.0967ZM30.0491 42.9048H29.0491V43.9048H30.0491V42.9048ZM30.0491 42.9048V41.9048H29.0491V42.9048H30.0491ZM33.0967 42.9048H34.0967V41.9048H33.0967V42.9048ZM33.0967 45.9524V46.9524H34.0967V45.9524H33.0967ZM30.0491 45.9524H29.0491V46.9524H30.0491V45.9524ZM23.9539 27.6667V26.6667H22.9539V27.6667H23.9539ZM27.0015 27.6667H28.0015V26.6667H27.0015V27.6667ZM27.0015 30.7143V31.7143H28.0015V30.7143H27.0015ZM23.9539 30.7143H22.9539V31.7143H23.9539V30.7143ZM27.0015 45.9524V46.9524H30.0491V45.9524V44.9524H27.0015V45.9524ZM30.0491 45.9524H29.0491V49H30.0491H31.0491V45.9524H30.0491ZM30.0491 49V48H27.0015V49V50H30.0491V49ZM27.0015 49H28.0015V45.9524H27.0015H26.0015V49H27.0015ZM27.0015 42.9048V43.9048H30.0491V42.9048V41.9048H27.0015V42.9048ZM30.0491 42.9048H29.0491V45.9524H30.0491H31.0491V42.9048H30.0491ZM30.0491 45.9524V44.9524H27.0015V45.9524V46.9524H30.0491V45.9524ZM27.0015 45.9524H28.0015V42.9048H27.0015H26.0015V45.9524H27.0015ZM27.0015 39.8571V40.8571H30.0491V39.8571V38.8571H27.0015V39.8571ZM30.0491 39.8571H29.0491V42.9048H30.0491H31.0491V39.8571H30.0491ZM30.0491 42.9048V41.9048H27.0015V42.9048V43.9048H30.0491V42.9048ZM27.0015 42.9048H28.0015V39.8571H27.0015H26.0015V42.9048H27.0015ZM27.0015 36.8095V37.8095H30.0491V36.8095V35.8095H27.0015V36.8095ZM30.0491 36.8095H29.0491V39.8571H30.0491H31.0491V36.8095H30.0491ZM30.0491 39.8571V38.8571H27.0015V39.8571V40.8571H30.0491V39.8571ZM27.0015 39.8571H28.0015V36.8095H27.0015H26.0015V39.8571H27.0015ZM27.0015 33.7619V34.7619H30.0491V33.7619V32.7619H27.0015V33.7619ZM30.0491 33.7619H29.0491V36.8095H30.0491H31.0491V33.7619H30.0491ZM30.0491 36.8095V35.8095H27.0015V36.8095V37.8095H30.0491V36.8095ZM27.0015 36.8095H28.0015V33.7619H27.0015H26.0015V36.8095H27.0015ZM27.0015 30.7143V31.7143H30.0491V30.7143V29.7143H27.0015V30.7143ZM30.0491 30.7143H29.0491V33.7619H30.0491H31.0491V30.7143H30.0491ZM30.0491 33.7619V32.7619H27.0015V33.7619V34.7619H30.0491V33.7619ZM27.0015 33.7619H28.0015V30.7143H27.0015H26.0015V33.7619H27.0015ZM27.0015 27.6667V28.6667H30.0491V27.6667V26.6667H27.0015V27.6667ZM30.0491 27.6667H29.0491V30.7143H30.0491H31.0491V27.6667H30.0491ZM30.0491 30.7143V29.7143H27.0015V30.7143V31.7143H30.0491V30.7143ZM27.0015 30.7143H28.0015V27.6667H27.0015H26.0015V30.7143H27.0015ZM27.0015 24.619V25.619H30.0491V24.619V23.619H27.0015V24.619ZM30.0491 24.619H29.0491V27.6667H30.0491H31.0491V24.619H30.0491ZM30.0491 27.6667V26.6667H27.0015V27.6667V28.6667H30.0491V27.6667ZM27.0015 27.6667H28.0015V24.619H27.0015H26.0015V27.6667H27.0015ZM30.0491 24.619V25.619H33.0967V24.619V23.619H30.0491V24.619ZM33.0967 24.619H32.0967V27.6667H33.0967H34.0967V24.619H33.0967ZM33.0967 27.6667V26.6667H30.0491V27.6667V28.6667H33.0967V27.6667ZM30.0491 27.6667H31.0491V24.619H30.0491H29.0491V27.6667H30.0491ZM30.0491 27.6667V28.6667H33.0967V27.6667V26.6667H30.0491V27.6667ZM33.0967 27.6667H32.0967V30.7143H33.0967H34.0967V27.6667H33.0967ZM33.0967 30.7143V29.7143H30.0491V30.7143V31.7143H33.0967V30.7143ZM30.0491 30.7143H31.0491V27.6667H30.0491H29.0491V30.7143H30.0491ZM30.0491 30.7143V31.7143H33.0967V30.7143V29.7143H30.0491V30.7143ZM33.0967 30.7143H32.0967V33.7619H33.0967H34.0967V30.7143H33.0967ZM33.0967 33.7619V32.7619H30.0491V33.7619V34.7619H33.0967V33.7619ZM30.0491 33.7619H31.0491V30.7143H30.0491H29.0491V33.7619H30.0491ZM30.0491 33.7619V34.7619H33.0967V33.7619V32.7619H30.0491V33.7619ZM33.0967 33.7619H32.0967V36.8095H33.0967H34.0967V33.7619H33.0967ZM33.0967 36.8095V35.8095H30.0491V36.8095V37.8095H33.0967V36.8095ZM30.0491 36.8095H31.0491V33.7619H30.0491H29.0491V36.8095H30.0491ZM30.0491 36.8095V37.8095H33.0967V36.8095V35.8095H30.0491V36.8095ZM33.0967 36.8095H32.0967V39.8571H33.0967H34.0967V36.8095H33.0967ZM33.0967 39.8571V38.8571H30.0491V39.8571V40.8571H33.0967V39.8571ZM30.0491 39.8571H31.0491V36.8095H30.0491H29.0491V39.8571H30.0491ZM30.0491 39.8571V40.8571H33.0967V39.8571V38.8571H30.0491V39.8571ZM33.0967 39.8571H32.0967V42.9048H33.0967H34.0967V39.8571H33.0967ZM33.0967 42.9048V41.9048H30.0491V42.9048V43.9048H33.0967V42.9048ZM30.0491 42.9048H31.0491V39.8571H30.0491H29.0491V42.9048H30.0491ZM30.0491 42.9048V43.9048H33.0967V42.9048V41.9048H30.0491V42.9048ZM33.0967 42.9048H32.0967V45.9524H33.0967H34.0967V42.9048H33.0967ZM33.0967 45.9524V44.9524H30.0491V45.9524V46.9524H33.0967V45.9524ZM30.0491 45.9524H31.0491V42.9048H30.0491H29.0491V45.9524H30.0491ZM23.9539 27.6667V28.6667H27.0015V27.6667V26.6667H23.9539V27.6667ZM27.0015 27.6667H26.0015V30.7143H27.0015H28.0015V27.6667H27.0015ZM27.0015 30.7143V29.7143H23.9539V30.7143V31.7143H27.0015V30.7143ZM23.9539 30.7143H24.9539V27.6667H23.9539H22.9539V30.7143H23.9539Z" fill="#603333" mask="url(#path-2-outside-1_1_37)"/>
</g>
<defs>
<filter id="filter0_d_1_37" x="22.9539" y="23.619" width="11.1429" height="28.381" filterUnits="userSpaceOnUse" color-interpolation-filters="sRGB">
<feFlood flood-opacity="0" result="BackgroundImageFix"/>
<feColorMatrix in="SourceAlpha" type="matrix" values="0 0 0 0 0 0 0 0 0 0 0 0 0 0 0 0 0 0 127 0" result="hardAlpha"/>
<feOffset dy="2"/>
<feComposite in2="hardAlpha" operator="out"/>
<feColorMatrix type="matrix" values="0 0 0 0 0.869231 0 0 0 0 0.473898 0 0 0 0 0.473898 0 0 0 0.25 0"/>
<feBlend mode="normal" in2="BackgroundImageFix" result="effect1_dropShadow_1_37"/>
<feBlend mode="normal" in="SourceGraphic" in2="effect1_dropShadow_1_37" result="shape"/>
</filter>
</defs>
</svg>
